<?xml version="1.0" encoding="iso-8859-1"?>
<!-- Generator: Adobe Illustrator 19.0.0, SVG Export Plug-In . SVG Version: 6.00 Build 0)  -->
<svg version="1.1" id="Capa_1" xmlns="http://www.w3.org/2000/svg" xmlns:xlink="http://www.w3.org/1999/xlink" x="0px" y="0px"
	 viewBox="0 0 512 512" style="enable-background:new 0 0 512 512;" xml:space="preserve">
<path style="fill:#333940;" d="M447,45c0-24.853-20.147-45-45-45H110C85.147,0,65,20.147,65,45v422c0,24.853,20.147,45,45,45h292
	c24.853,0,45-20.147,45-45V45z"/>
<path style="fill:#636978;" d="M256,0H110C85.147,0,65,20.147,65,45v422c0,24.853,20.147,45,45,45h146V0z"/>
<rect x="65" y="83" style="fill:#DCE1EB;" width="382" height="319"/>
<rect x="65" y="83" style="fill:#EBF0FA;" width="191" height="319"/>
<path style="fill:#DCE1EB;" d="M267.037,432h-22.074c-8.284,0-15,6.716-15,15s6.716,15,15,15h22.074c8.284,0,15-6.716,15-15
	S275.321,432,267.037,432z"/>
<path style="fill:#EBF0FA;" d="M256,432h-11.037c-8.284,0-15,6.716-15,15s6.716,15,15,15H256V432z"/>
<g>
</g>
<g>
</g>
<g>
</g>
<g>
</g>
<g>
</g>
<g>
</g>
<g>
</g>
<g>
</g>
<g>
</g>
<g>
</g>
<g>
</g>
<g>
</g>
<g>
</g>
<g>
</g>
<g>
</g>
</svg>
