<?xml version="1.0" standalone="no"?>
<!DOCTYPE svg PUBLIC "-//W3C//DTD SVG 20010904//EN"
 "http://www.w3.org/TR/2001/REC-SVG-20010904/DTD/svg10.dtd">
<svg version="1.0" xmlns="http://www.w3.org/2000/svg"
 width="400.000000pt" height="350.000000pt" viewBox="0 0 400.000000 350.000000"
 preserveAspectRatio="xMidYMid meet">
<metadata>
Created by potrace 1.16, written by Peter Selinger 2001-2019
</metadata>
<g transform="translate(0.000000,350.000000) scale(0.100000,-0.100000)"
fill="#3edbf0" stroke="none">
<path d="M2237 3292 c-16 -9 -31 -29 -34 -44 -3 -16 -13 -28 -27 -31 -11 -2
-86 -28 -166 -56 -304 -109 -273 -101 -299 -80 -31 26 -70 24 -106 -5 -25 -20
-29 -30 -28 -69 2 -45 1 -45 -118 -162 -65 -64 -117 -121 -114 -126 4 -5 0 -7
-7 -4 -7 3 -33 -16 -58 -40 -29 -30 -50 -43 -60 -39 -88 38 -170 -31 -141
-119 12 -36 63 -73 84 -61 9 6 9 4 1 -7 -16 -21 -38 -125 -29 -139 6 -9 4 -11
-5 -5 -10 6 -12 1 -8 -19 3 -14 2 -26 -2 -26 -4 0 -11 -20 -15 -46 -5 -34 -12
-48 -30 -56 -54 -24 -31 -98 30 -98 24 0 45 -9 66 -27 17 -16 35 -27 40 -25 5
1 8 -4 7 -10 -2 -7 5 -12 15 -12 9 1 17 -4 17 -11 0 -6 46 -50 103 -98 l102
-86 0 -46 c0 -39 5 -51 28 -71 33 -28 82 -31 117 -7 32 22 40 33 40 61 0 13 6
22 15 22 9 0 94 18 189 40 171 40 175 40 205 23 25 -15 34 -16 51 -5 28 17 33
16 107 -18 35 -16 67 -30 69 -30 3 0 70 -27 150 -61 119 -50 147 -66 159 -90
9 -16 26 -31 39 -35 23 -5 25 -11 31 -102 3 -54 10 -140 15 -192 16 -160 15
-196 -3 -215 -9 -9 -15 -26 -13 -38 3 -12 5 -26 5 -30 1 -4 11 -11 24 -16 29
-11 66 6 73 34 4 15 20 26 57 38 32 10 53 13 55 7 6 -16 68 -12 82 5 8 10 10
29 6 56 -6 35 0 54 42 142 27 56 61 126 75 155 17 38 35 58 58 70 19 9 39 29
46 43 11 22 34 33 145 69 107 36 145 44 195 42 57 -2 64 0 79 23 13 20 15 33
7 58 -8 28 -3 45 42 134 46 95 52 102 80 103 48 1 85 41 85 93 0 25 -41 77
-61 77 -9 0 -10 46 -5 197 7 192 8 197 31 219 14 13 25 34 25 46 0 33 -27 68
-53 68 -18 0 -35 26 -97 146 -57 111 -72 147 -62 153 24 14 10 73 -20 90 -25
14 -29 14 -57 -6 l-30 -22 -118 48 -118 49 -8 41 c-10 52 -55 91 -104 91 -29
0 -44 -8 -73 -39 l-36 -38 -180 18 c-98 11 -249 26 -334 35 -140 14 -157 18
-175 39 -17 19 -56 46 -67 45 -2 0 -16 -8 -31 -18z m279 -97 c520 -53 531 -55
521 -90 -2 -5 -71 -47 -153 -92 -245 -136 -265 -146 -277 -134 -6 6 -23 11
-38 11 -21 0 -33 11 -62 58 -19 31 -67 100 -105 151 -39 52 -69 99 -66 103 7
10 7 10 180 -7z m-295 -39 c-5 -12 -18 -42 -29 -66 -12 -25 -46 -103 -76 -175
-54 -129 -55 -130 -85 -127 -17 2 -45 -4 -63 -12 l-32 -16 -102 97 c-77 75
-101 103 -97 118 3 11 6 29 7 40 3 22 23 31 291 123 175 60 202 63 186 18z
m129 -37 c19 -28 49 -69 65 -92 87 -119 106 -154 96 -180 -9 -23 -26 -29 -198
-70 -176 -43 -189 -45 -206 -29 -21 19 -19 35 22 124 15 35 50 113 77 175 47
110 53 116 99 121 6 1 26 -21 45 -49z m978 -69 c150 -63 162 -69 162 -82 0
-12 -200 -162 -306 -232 l-41 -27 -37 22 c-41 24 -41 23 -11 154 8 33 18 80
22 104 7 38 13 46 40 55 18 6 40 19 50 29 9 9 19 17 21 17 2 0 47 -18 100 -40z
m-245 2 c10 -10 15 -21 13 -23 -2 -2 -14 -53 -26 -114 -11 -60 -23 -120 -26
-133 -3 -15 -19 -29 -48 -41 -23 -11 -52 -31 -63 -47 l-20 -28 -137 70 c-163
83 -166 89 -61 148 211 119 331 184 341 185 6 1 18 -7 27 -17z m-1401 -122
c28 9 35 4 133 -91 99 -97 102 -101 92 -129 -12 -31 4 -27 -327 -86 -249 -44
-305 -52 -313 -47 -4 2 -6 17 -5 33 1 16 5 27 8 25 3 -2 79 68 170 154 156
150 165 157 188 145 16 -8 34 -9 54 -4z m1866 -2 c5 -7 40 -72 76 -145 94
-185 107 -173 -200 -173 l-242 0 -7 37 c-5 30 -3 40 12 51 79 59 339 242 344
242 4 0 11 -6 17 -12z m-1025 -144 c5 -6 -27 -69 -173 -341 -51 -96 -57 -103
-85 -103 -27 1 -36 11 -102 118 l-72 117 21 22 c12 13 20 36 21 62 2 47 -20
37 212 95 146 36 168 40 178 30z m245 -78 c125 -65 132 -70 132 -98 0 -17 10
-50 21 -74 l22 -42 -69 -126 c-66 -120 -71 -126 -100 -126 -25 0 -33 5 -36 23
-3 12 -19 74 -36 137 -17 63 -45 168 -62 234 -29 109 -32 153 -12 144 5 -2 68
-34 140 -72z m-171 -32 c12 -43 43 -159 69 -257 l48 -178 -31 -31 c-35 -35
-17 -37 -208 20 -132 40 -128 38 -143 72 -11 24 -11 33 2 52 8 13 37 66 65
118 28 52 75 139 103 193 29 53 57 96 63 94 5 -2 20 -39 32 -83z m-689 -52 c3
-16 -22 -52 -92 -133 -53 -62 -93 -116 -89 -122 3 -6 1 -7 -5 -3 -6 3 -15 -1
-20 -10 -5 -9 -31 -20 -60 -25 -49 -9 -55 -8 -129 32 -43 24 -90 51 -105 61
-16 11 -33 16 -39 12 -7 -4 -9 -3 -6 3 3 5 -16 20 -43 34 -27 13 -52 29 -54
36 -13 32 22 42 299 88 154 26 282 49 285 52 2 2 16 3 30 1 17 -2 26 -10 28
-26z m50 -54 c6 -6 34 -12 62 -12 l50 -1 75 -122 c64 -104 84 -142 73 -143 -2
0 -117 -3 -255 -7 -304 -7 -299 -10 -198 102 40 45 64 79 59 86 -4 7 -3 9 3 6
6 -4 32 18 58 48 50 59 55 61 73 43z m1712 -1 c0 -7 -69 -81 -154 -166 -149
-149 -156 -154 -197 -155 l-42 -1 -80 118 -79 119 25 26 c14 15 28 37 32 50
l6 22 245 0 c190 0 244 -3 244 -13z m42 -228 c-3 -167 -6 -196 -20 -207 -9 -7
-26 -20 -36 -28 -22 -18 -36 -16 -181 28 -74 24 -80 27 -86 57 -6 31 0 39 149
192 85 88 160 158 166 156 8 -3 10 -64 8 -198z m-2400 107 c78 -49 154 -86
163 -78 5 4 6 2 2 -3 -3 -6 16 -23 42 -38 27 -14 54 -33 61 -42 15 -18 11 -20
-189 -77 -83 -23 -147 -46 -144 -52 3 -5 1 -6 -4 -3 -14 9 -74 -3 -68 -13 10
-16 -30 -4 -43 12 -10 13 -9 30 3 89 9 40 13 81 9 92 -4 12 -2 17 4 13 7 -4
13 11 17 37 8 52 11 57 50 79 40 22 38 22 97 -16z m1733 24 l43 0 86 -129 c47
-71 86 -135 86 -144 0 -8 -10 -17 -22 -20 -18 -5 -231 -29 -343 -40 -12 -1
-21 5 -23 18 -2 11 -13 30 -24 42 l-21 22 73 131 c53 96 76 130 87 126 8 -3
34 -6 58 -6z m-1088 -210 c138 0 233 -4 231 -9 -1 -5 -57 -51 -123 -102 -66
-51 -123 -97 -127 -103 -4 -6 -8 -8 -8 -4 0 5 -11 -2 -25 -14 -17 -15 -22 -25
-15 -32 7 -7 19 -2 37 15 51 47 294 221 300 215 6 -6 -21 -69 -95 -223 -33
-70 -49 -93 -63 -93 -12 0 -27 -13 -37 -29 -14 -25 -26 -32 -77 -41 -110 -20
-210 -47 -195 -52 8 -4 4 -6 -10 -5 -48 1 -81 -3 -76 -11 2 -4 -4 -8 -14 -8
-47 0 -23 30 100 123 79 59 126 101 120 107 -12 12 -192 -123 -183 -138 3 -6
3 -8 -2 -4 -4 4 -20 -1 -35 -12 -33 -23 -40 -24 -74 -9 -19 9 -23 16 -17 28 5
9 24 90 42 179 29 145 36 165 55 173 24 9 49 44 36 52 -4 2 -1 2 6 0 8 -1 119
-3 249 -3z m-337 -51 c0 -8 -36 -189 -51 -256 -7 -28 -9 -59 -6 -68 4 -9 3
-14 -3 -10 -6 3 -10 -3 -10 -14 0 -13 -9 -21 -30 -26 -16 -4 -34 -14 -39 -22
-7 -14 -12 -12 -32 11 -13 15 -28 25 -35 22 -7 -3 -22 7 -35 22 l-24 27 28
-24 c15 -14 27 -21 27 -18 0 16 -66 66 -80 61 -8 -3 -12 -2 -8 1 11 11 -35 56
-51 50 -9 -3 -12 -3 -8 1 10 10 -13 35 -26 27 -5 -3 -7 -1 -4 4 4 6 0 16 -8
23 -8 7 -15 9 -15 4 0 -5 -7 2 -16 14 -8 12 -20 19 -26 16 -6 -4 -8 -2 -4 4 3
6 2 13 -4 17 -5 3 -10 14 -10 23 0 16 123 56 394 128 39 10 76 2 76 -17z m797
7 c43 -13 110 -34 149 -46 70 -20 72 -22 76 -56 2 -19 -1 -38 -6 -43 -6 -4
-67 -27 -136 -51 -69 -23 -178 -62 -243 -86 -65 -24 -122 -44 -127 -44 -16 0
-12 15 19 84 87 189 113 236 130 236 9 0 26 7 37 15 24 18 10 19 101 -9z m858
-79 c3 -6 -30 -127 -73 -267 -66 -213 -81 -255 -98 -257 -15 -2 -48 43 -150
200 l-132 202 24 28 c13 16 24 35 24 43 0 18 15 21 215 43 94 10 174 19 178
20 4 0 10 -5 12 -12z m227 -44 c113 -34 128 -41 133 -63 4 -14 13 -32 20 -40
11 -13 6 -31 -38 -121 -44 -90 -55 -106 -70 -100 -11 4 -55 78 -108 181 -49
96 -89 176 -89 177 0 9 37 0 152 -34z m-88 -158 c75 -146 86 -173 77 -193 -6
-13 -11 -31 -11 -42 0 -15 -27 -28 -152 -69 -186 -61 -189 -60 -154 49 13 41
47 152 76 245 65 215 59 200 69 189 4 -5 47 -85 95 -179z m-722 88 c14 -16 13
-29 -7 -133 -12 -63 -25 -131 -29 -150 -5 -28 -14 -38 -45 -53 l-39 -18 -103
42 c-57 22 -113 45 -124 50 -11 4 -62 25 -113 46 -52 22 -94 43 -94 48 0 9 44
25 272 103 36 13 72 25 80 29 136 55 179 63 202 36z m236 -221 c72 -109 132
-206 132 -215 0 -21 -33 -22 -127 -3 -37 7 -102 19 -143 26 -73 13 -75 14 -94
53 l-19 40 28 149 29 148 30 0 c29 0 40 -13 164 -198z m-40 -238 c217 -38 210
-27 122 -215 -89 -186 -99 -204 -110 -193 -17 17 -210 417 -210 435 0 6 8 9
18 7 9 -3 90 -18 180 -34z m-157 -131 c23 -49 63 -133 90 -188 43 -88 47 -102
37 -126 -15 -34 -88 -63 -122 -48 -21 10 -23 20 -34 142 -20 220 -25 307 -19
307 4 0 25 -39 48 -87z"/>
<path d="M260 1165 l0 -307 173 5 c190 4 237 14 278 58 36 39 42 79 37 280 -3
151 -5 167 -25 195 -40 56 -86 67 -285 72 l-178 4 0 -307z m318 161 c14 -14
17 -40 17 -161 0 -177 -1 -178 -107 -179 l-73 -1 -3 170 c-1 93 0 176 3 183 8
21 140 11 163 -12z"/>
<path d="M870 1165 l0 -305 215 0 215 0 0 60 0 59 -137 3 -138 3 0 60 0 60
118 3 117 3 0 59 0 60 -120 0 -121 0 3 58 3 57 138 3 137 3 0 59 0 60 -215 0
-215 0 0 -305z"/>
<path d="M1420 1165 l0 -305 215 0 215 0 0 60 0 60 -140 0 -141 0 3 63 3 62
118 3 118 3 -3 57 -3 57 -118 3 -118 3 3 57 3 57 138 3 137 3 0 59 0 60 -215
0 -215 0 0 -305z"/>
<path d="M1970 1165 l0 -305 75 0 75 0 0 100 0 100 100 0 c182 0 221 35 222
197 0 108 -8 137 -44 171 -38 35 -80 42 -260 42 l-168 0 0 -305z m298 169 c18
-12 22 -25 22 -69 0 -74 -13 -85 -101 -85 l-69 0 0 85 0 85 63 0 c40 0 70 -5
85 -16z"/>
<path d="M610 511 l0 -231 145 0 145 0 0 25 0 25 -120 0 -120 0 0 80 0 80 105
0 c98 0 105 1 105 20 0 19 -7 20 -105 20 l-105 0 0 80 0 80 120 0 c113 0 120
1 120 20 0 19 -7 20 -122 20 -68 0 -133 3 -145 6 l-23 6 0 -231z"/>
<path d="M2533 733 c-10 -3 -13 -59 -13 -230 l0 -224 23 3 c22 3 22 6 27 178
l5 175 97 -140 c53 -77 109 -157 124 -178 19 -27 32 -37 48 -35 21 3 21 7 24
226 l2 222 -25 0 -25 0 0 -165 c0 -91 -3 -165 -7 -165 -5 0 -24 24 -43 52 -83
124 -183 264 -198 276 -17 13 -20 13 -39 5z"/>
<path d="M3063 729 c-17 -5 -42 -24 -55 -42 -21 -30 -23 -42 -23 -177 0 -124
3 -150 18 -174 27 -41 74 -56 174 -56 141 0 133 -7 133 126 l0 114 -75 0 c-68
0 -75 -2 -75 -20 0 -17 7 -20 50 -20 l50 0 0 -74 0 -74 -31 -6 c-46 -9 -89 -7
-132 5 -53 14 -67 51 -67 177 0 107 12 157 40 172 10 6 68 10 129 10 102 0
111 2 111 19 0 15 -10 19 -52 25 -72 8 -156 6 -195 -5z"/>
<path d="M270 505 l0 -225 130 0 130 0 0 25 0 25 -105 0 -105 0 0 200 0 200
-25 0 -25 0 0 -225z"/>
<path d="M1115 718 c-3 -7 -11 -31 -19 -53 -8 -22 -42 -111 -75 -199 -34 -87
-61 -165 -61 -173 0 -9 8 -13 21 -11 16 2 27 18 42 58 12 30 26 58 31 62 14 9
188 9 202 0 5 -4 19 -32 31 -62 17 -47 24 -56 48 -58 23 -3 27 -1 20 15 -4 10
-27 72 -52 138 -25 66 -57 149 -71 185 -13 36 -27 75 -29 88 -4 18 -12 22 -44
22 -23 0 -42 -5 -44 -12z m90 -161 c19 -50 35 -95 35 -99 0 -5 -38 -8 -85 -8
-52 0 -85 4 -85 10 0 6 13 45 30 88 16 42 34 91 40 107 14 37 17 33 65 -98z"/>
<path d="M1440 504 l0 -225 23 3 c21 3 22 8 25 91 l3 88 80 -3 81 -3 35 -87
c30 -76 38 -88 59 -88 13 0 24 3 24 6 0 3 -16 43 -35 90 l-36 85 30 28 c51 48
54 169 6 217 -23 23 -30 24 -160 24 l-135 0 0 -226z m262 168 c8 -8 13 -37 13
-73 0 -82 -11 -89 -132 -89 l-93 0 0 91 0 91 100 -4 c64 -2 104 -8 112 -16z"/>
<path d="M1880 505 c0 -218 1 -225 20 -225 19 0 20 7 20 175 0 96 3 175 8 175
4 0 14 -11 23 -23 31 -45 154 -223 183 -267 34 -51 44 -60 69 -60 16 0 17 17
17 225 l0 225 -23 0 -22 0 1 -160 c0 -89 -2 -163 -6 -165 -5 -3 -59 69 -121
159 -100 144 -117 165 -141 165 l-28 1 0 -225z"/>
<path d="M2350 505 l0 -225 25 0 25 0 0 225 0 225 -25 0 -25 0 0 -225z"/>
</g>
</svg>
