<?xml version="1.0" encoding="iso-8859-1"?>
<!-- Generator: Adobe Illustrator 19.0.0, SVG Export Plug-In . SVG Version: 6.00 Build 0)  -->
<svg version="1.1" id="Capa_1" xmlns="http://www.w3.org/2000/svg" xmlns:xlink="http://www.w3.org/1999/xlink" x="0px" y="0px"
	 viewBox="0 0 511.983 511.983" style="enable-background:new 0 0 511.983 511.983;" xml:space="preserve">
<path style="fill:#FBB540;" d="M112.647,200.466H79.443c-5.399,0.624-10.319-3.161-11.105-8.542v-34.169
	c1.572-10.738,11.37-18.298,22.159-17.085h22.15V200.466z"/>
<path style="fill:#B9B9B9;" d="M333.15,89.417h17.085v264.811H333.15V89.417z"/>
<path style="fill:#FDC9A6;" d="M282.178,203.883c-1.239,0-2.477-0.128-3.69-0.393c-3.656-0.683-6.877-2.845-8.884-5.98
	l-48.332-53.817c-3.323-3.135-5.185-7.526-5.125-12.096c0.043-4.673,2.059-9.115,5.544-12.224
	c7.022-6.304,17.828-5.715,24.123,1.307c0,0,0,0.009,0.009,0.009l40.209,44.044l37.877-24.773
	c7.944-5.091,18.511-2.776,23.602,5.168c5.091,7.944,2.776,18.511-5.168,23.602l-50.963,32.461
	C288.627,202.952,285.441,203.883,282.178,203.883z"/>
<path style="fill:#F6BB92;" d="M230.642,106.501h-17.085c-14.155,0-25.627-11.472-25.627-25.627V38.163
	c0-14.155,11.472-25.627,25.627-25.627h17.085c14.155,0,25.627,11.472,25.627,25.627v42.712
	C256.269,95.029,244.797,106.501,230.642,106.501z"/>
<path style="fill:#DC4D41;" d="M256.269,38.163c0-14.155-11.472-25.627-25.627-25.627h-17.085
	c-14.155,0-25.627,11.472-25.627,25.627v17.085h68.338V38.163z"/>
<path style="fill:#F6BB92;" d="M187.931,55.247v25.627c0,14.155,11.472,25.627,25.627,25.627h17.085
	c14.155,0,25.627-11.472,25.627-25.627V55.247C256.269,55.247,187.931,55.247,187.931,55.247z"/>
<path style="fill:#D68F29;" d="M102.508,80.874h68.338v119.592h-68.338V80.874z"/>
<path style="fill:#B47923;" d="M102.508,80.874h68.338v17.085h-68.338V80.874z"/>
<circle style="fill:#79A73A;" cx="136.677" cy="46.705" r="34.169"/>
<path style="fill:#89B140;" d="M136.677,59.518c-7.073,0-12.813-5.74-12.813-12.813s5.74-12.813,12.813-12.813
	c7.073,0,12.813,5.74,12.813,12.813S143.75,59.518,136.677,59.518z"/>
<path style="fill:#B47923;" d="M102.508,200.466h68.338l0,0v17.085c0,9.439-7.645,17.085-17.085,17.085h-34.169
	c-9.439,0-17.085-7.645-17.085-17.085V200.466L102.508,200.466z"/>
<path style="fill:#6C7175;" d="M240.551,302.974l24.26,17.332v51.006c0,9.439,7.645,17.085,17.085,17.085
	s17.085-7.645,17.085-17.085v-59.796c0-5.518-2.665-10.695-7.158-13.898l-44.095-37.356v-34.169h-76.881v29.898
	c0.034,0.829,0.12,1.666,0.248,2.486c-0.145,0.846-0.222,1.7-0.248,2.563c0,3.289,0,11.959,24.072,71.448l-31.145,73.464
	c-3.844,8.927-0.034,19.297,8.67,23.619c2.17,1.017,4.544,1.546,6.945,1.538c6.868-0.077,13.027-4.263,15.624-10.627l34.169-80.571
	c1.913-4.562,1.939-9.695,0.077-14.283c-3.203-7.833-6.253-15.487-9.038-22.654L240.551,302.974L240.551,302.974z"/>
<path style="fill:#428DC5;" d="M247.727,243.178h-76.881V106.501h59.796c9.439,0,17.085,7.645,17.085,17.085V243.178z"/>
<g>
	<path style="fill:#DBDBDB;" d="M264.811,371.313h42.712c9.439,0,17.085,7.645,17.085,17.085v17.085l0,0h-59.796l0,0V371.313
		L264.811,371.313z"/>
	<path style="fill:#DBDBDB;" d="M162.304,414.024h42.712c9.439,0,17.085,7.645,17.085,17.085v17.085l0,0h-59.796l0,0V414.024
		L162.304,414.024z"/>
</g>
<g>
	<path style="fill:#B9B9B9;" d="M324.608,320.059h34.169v17.085h-34.169V320.059z"/>
	<path style="fill:#B9B9B9;" d="M222.1,225.999L33.563,414.024"/>
	<path style="fill:#B9B9B9;" d="M27.523,407.968l188.546-188.025l12.062,12.096L39.594,420.072L27.523,407.968z"/>
	<path style="fill:#B9B9B9;" d="M39.816,383.528l23.995,24.602"/>
	<path style="fill:#B9B9B9;" d="M33.699,389.491l12.233-11.925l23.995,24.602l-12.233,11.925L33.699,389.491z"/>
</g>
<path style="fill:#F6BB92;" d="M190.493,277.723c-5.39-0.017-10.456-2.588-13.668-6.919l-36.219-48.862
	c-4.972-6.714-4.425-16.017,1.307-22.099l50.767-53.723c6.432-6.842,17.187-7.176,24.029-0.743c0.06,0.06,0.128,0.12,0.188,0.179
	c6.757,6.569,7.005,17.349,0.547,24.217l-40.841,43.233l27.557,37.27c5.595,7.586,4.075,18.263-3.417,23.987
	C197.797,276.51,194.201,277.732,190.493,277.723z"/>
<path style="fill:#804D35;" d="M8.542,465.278v34.169l494.915-0.538V251.72l-42.173,49.827l-46.427,34.827
	c-3.195,2.392-5.945,5.322-8.124,8.67l-31.829,48.811c-4.732,7.252-12.805,11.626-21.467,11.626h-32.093
	c-16.939,0.009-33.084,7.201-44.42,19.793l-10.439,11.609c-6.484,7.21-15.735,11.319-25.43,11.31H112.468
	c-0.94,0-1.879,0.077-2.81,0.231L8.542,465.278z"/>
<g>
	<path style="fill:#5B3726;" d="M435.657,414.024h17.085v17.085h-17.085V414.024z"/>
	<path style="fill:#5B3726;" d="M461.284,388.397h17.085v17.085h-17.085V388.397z"/>
	<path style="fill:#5B3726;" d="M410.031,388.397h17.085v17.085h-17.085V388.397z"/>
	<path style="fill:#5B3726;" d="M316.065,431.109h17.085v17.085h-17.085V431.109z"/>
	<path style="fill:#5B3726;" d="M290.438,456.736h17.085v17.085h-17.085V456.736z"/>
	<path style="fill:#5B3726;" d="M341.692,456.736h17.085v17.085h-17.085V456.736z"/>
	<path style="fill:#5B3726;" d="M111.05,465.278h17.085v17.085H111.05V465.278z"/>
	<path style="fill:#5B3726;" d="M187.931,465.278h17.085v17.085h-17.085V465.278z"/>
</g>
<path style="fill:#C7463B;" d="M187.931,46.705h85.423V63.79h-85.423V46.705z"/>
<path style="fill:#EAB28B;" d="M187.931,63.79h68.338v17.085h-68.338V63.79z"/>
<path style="fill:#FFFFFF;" d="M341.692,168.783v185.445"/>
<rect x="333.15" y="168.783" width="17.085" height="185.445"/>
<path style="fill:#FFFFFF;" d="M341.692,89.417v46.624"/>
<rect x="333.15" y="89.417" width="17.085" height="46.624"/>
<path d="M282.186,212.451c-1.837,0-3.682-0.196-5.518-0.589c-5.459-1.017-10.524-4.322-13.83-9.072l-21.475-23.893l12.702-11.421
	l22.705,25.43c0.743,1.153,1.939,1.956,3.272,2.212c2.52,0.538,4.809,0.128,6.748-1.093l50.938-32.444
	c1.905-1.222,3.229-3.126,3.716-5.356c0.495-2.23,0.085-4.51-1.153-6.432c-1.239-1.922-3.135-3.246-5.365-3.742
	c-2.221-0.495-4.51-0.085-6.441,1.145l-43.89,28.711l-45.112-49.409c-1.674-1.871-3.989-2.904-6.415-2.904l0.017-17.085
	c7.278,0.009,14.223,3.118,19.075,8.534l35.254,38.611l31.786-20.792c5.834-3.742,12.685-4.955,19.382-3.502
	c6.68,1.469,12.403,5.45,16.094,11.208c3.699,5.758,4.929,12.617,3.46,19.306c-1.469,6.689-5.45,12.403-11.207,16.094
	l-50.989,32.469C291.762,211.085,287.021,212.451,282.186,212.451z"/>
<path d="M230.642,106.501h-17.085c-14.129,0-25.627-11.498-25.627-25.627V38.163c0-14.129,11.498-25.627,25.627-25.627h17.085
	c14.129,0,25.627,11.498,25.627,25.627v42.712C256.269,95.012,244.771,106.501,230.642,106.501z M213.558,29.62
	c-4.707,0-8.542,3.835-8.542,8.542v42.712c0,4.707,3.835,8.542,8.542,8.542h17.085c4.707,0,8.542-3.836,8.542-8.542V38.163
	c0-4.707-3.835-8.542-8.542-8.542C230.642,29.62,213.558,29.62,213.558,29.62z"/>
<rect x="196.473" y="46.705" width="76.881" height="17.085"/>
<path d="M136.677,209.009h-34.169c-4.715,0-8.542-3.827-8.542-8.542V80.874c0-4.715,3.827-8.542,8.542-8.542h68.338
	c4.715,0,8.542,3.827,8.542,8.542v88.097c0,4.715-3.827,8.542-8.542,8.542c-4.715,0-8.542-3.827-8.542-8.542V89.417H111.05v102.508
	h25.627c4.715,0,8.542,3.827,8.542,8.542C145.219,205.182,141.392,209.009,136.677,209.009z"/>
<path d="M136.677,89.417c-23.551,0-42.712-19.16-42.712-42.712s19.16-42.712,42.712-42.712s42.712,19.16,42.712,42.712
	S160.228,89.417,136.677,89.417z M136.677,21.078c-14.129,0-25.627,11.498-25.627,25.627s11.498,25.627,25.627,25.627
	s25.627-11.498,25.627-25.627S150.806,21.078,136.677,21.078z"/>
<circle style="fill:#FFFFFF;" cx="136.677" cy="46.705" r="4.271"/>
<path d="M136.677,59.518c-7.064,0-12.813-5.749-12.813-12.813s5.749-12.813,12.813-12.813s12.813,5.749,12.813,12.813
	S143.741,59.518,136.677,59.518z M136.677,42.434c-2.358,0-4.271,1.913-4.271,4.271c0,2.358,1.913,4.271,4.271,4.271
	s4.271-1.913,4.271-4.271C140.948,44.347,139.035,42.434,136.677,42.434z"/>
<path d="M102.508,209.009H76.881c-9.422,0-17.085-7.662-17.085-17.085v-34.169c0-14.129,11.498-25.627,25.627-25.627h17.085
	c4.715,0,8.542,3.827,8.542,8.542v59.796C111.05,205.19,107.223,209.009,102.508,209.009z M85.423,149.213
	c-4.707,0-8.542,3.835-8.542,8.542v34.169h17.085v-42.712H85.423z"/>
<path d="M154.257,243.178h-34.665c-14.129,0-25.627-11.498-25.627-25.627v-17.085c0-4.715,3.827-8.542,8.542-8.542h42.712v17.085
	H111.05v8.542c0,4.707,3.835,8.542,8.542,8.542h34.665V243.178z"/>
<path d="M197.712,422.635c-1.11,0-2.247-0.214-3.331-0.675c-4.339-1.845-6.373-6.859-4.527-11.208l31.47-74.181
	c1.017-2.426,1.034-5.254,0.026-7.722c-3.212-7.867-6.287-15.573-9.089-22.782c-1.708-4.399,0.47-9.345,4.869-11.054
	c4.382-1.734,9.345,0.47,11.054,4.861c2.768,7.124,5.8,14.735,8.986,22.518c2.734,6.731,2.699,14.12-0.102,20.818l-31.487,74.216
	C204.195,420.687,201.035,422.635,197.712,422.635z"/>
<path d="M162.312,421.499c-0.043,0-0.085,0-0.128,0c-4.715-0.068-8.491-3.947-8.423-8.662c0.051-3.511,0.769-6.936,2.144-10.148
	l29.761-70.209c-10.071-25.089-16.922-43.779-20.382-55.602c-1.324-4.527,1.264-9.277,5.792-10.601
	c4.527-1.324,9.268,1.264,10.601,5.8c3.451,11.797,10.575,31.068,21.159,57.293c0.846,2.093,0.829,4.451-0.051,6.535l-31.145,73.472
	c-0.504,1.179-0.769,2.426-0.786,3.707C170.786,417.757,166.976,421.499,162.312,421.499z"/>
<path d="M298.981,379.855c-4.724,0-8.542-3.818-8.542-8.542v-59.796c0-2.751-1.333-5.347-3.579-6.945L242.2,266.78
	c-1.913-1.615-3.015-4.006-3.015-6.518v-17.085c0-4.715,3.827-8.542,8.542-8.542s8.542,3.827,8.542,8.542v13.13l41.08,34.801
	c6.159,4.357,10.174,12.147,10.174,20.408v59.796C307.523,376.036,303.705,379.855,298.981,379.855z"/>
<path d="M264.811,379.855c-4.715,0-8.542-3.818-8.542-8.542v-46.607l-20.681-14.778c-3.835-2.742-4.724-8.072-1.982-11.917
	c2.734-3.844,8.072-4.741,11.917-1.982l24.252,17.332c2.247,1.606,3.579,4.186,3.579,6.953v51.006
	C273.354,376.036,269.535,379.855,264.811,379.855z"/>
<path d="M247.727,251.72H199.54c-4.715,0-8.542-3.827-8.542-8.542s3.827-8.542,8.542-8.542h39.645V132.128
	c0-4.707-3.835-8.542-8.542-8.542h-59.796c-4.715,0-8.542-3.827-8.542-8.542s3.827-8.542,8.542-8.542h59.796
	c14.129,0,25.627,11.498,25.627,25.627v111.05C256.269,247.902,252.442,251.72,247.727,251.72z"/>
<path d="M324.608,414.024h-59.796c-4.715,0-8.542-3.818-8.542-8.542v-34.169c0-4.724,3.827-8.542,8.542-8.542h42.712
	c14.129,0,25.627,11.498,25.627,25.627v17.085C333.15,410.206,329.331,414.024,324.608,414.024z M273.354,396.939h42.712v-8.542
	c0-4.715-3.827-8.542-8.542-8.542h-34.169V396.939z"/>
<path d="M222.1,456.736h-59.796c-4.715,0-8.542-3.818-8.542-8.542v-34.169c0-4.724,3.827-8.542,8.542-8.542h42.712
	c14.129,0,25.627,11.498,25.627,25.627v17.085C230.642,452.917,226.815,456.736,222.1,456.736z M170.846,439.651h42.712v-8.542
	c0-4.715-3.835-8.542-8.542-8.542h-34.169V439.651z"/>
<path style="fill:#FFFFFF;" d="M324.608,328.601h34.169"/>
<rect x="324.608" y="320.059" width="34.169" height="17.085"/>
<path style="fill:#FFFFFF;" d="M176.979,271L33.563,414.024"/>
<rect x="4.01" y="334.001" transform="matrix(-0.7081 0.7061 -0.7061 -0.7081 421.7065 510.7601)" width="202.545" height="17.084"/>
<path style="fill:#FFFFFF;" d="M222.1,225.999l-22.56,22.5"/>
<rect x="194.879" y="228.724" transform="matrix(-0.7081 0.7061 -0.7061 -0.7081 527.6218 256.4211)" width="31.863" height="17.084"/>
<path style="fill:#FFFFFF;" d="M39.816,383.528l23.995,24.602"/>
<rect x="43.308" y="378.683" transform="matrix(-0.7159 0.6983 -0.6983 -0.7159 365.3741 643.0216)" width="17.086" height="34.342"/>
<path d="M190.57,286.223c-0.034,0-0.077,0-0.111,0c-8.038-0.026-15.701-3.904-20.493-10.387l-36.211-48.853
	c-7.449-10.046-6.629-23.944,1.956-33.05l50.775-53.731c4.656-4.955,10.985-7.808,17.802-8.013
	c6.894-0.162,13.317,2.247,18.289,6.919c10.328,10.029,10.695,26.268,1.102,36.476l-35.946,38.056l23.312,31.572
	c8.312,11.267,6.022,27.344-5.108,35.844C201.513,284.395,196.071,286.223,190.57,286.223z M205.075,149.264
	c-0.094,0-0.179,0-0.265,0c-2.264,0.068-4.357,1.017-5.894,2.657l-50.793,53.748c-2.887,3.058-3.161,7.756-0.649,11.139
	l36.219,48.862c1.606,2.178,4.092,3.519,6.868,3.468c1.811,0,3.596-0.598,5.031-1.683c3.742-2.853,4.51-8.295,1.708-12.104
	l-31.803-43.062l45.744-48.426c3.229-3.434,3.109-8.927-0.29-12.224C209.286,150.075,207.236,149.264,205.075,149.264z"/>
<path d="M8.542,507.989c-2.264,0-4.433-0.897-6.039-2.503C0.897,503.889,0,501.719,0,499.447v-34.169
	c0-4.177,3.024-7.739,7.133-8.423l101.115-16.854c1.375-0.231,2.793-0.35,4.22-0.35h128.587c0.009,0,0.017,0,0.017,0
	c7.261,0,14.206-3.092,19.058-8.483l10.439-11.6c12.933-14.368,31.436-22.611,50.758-22.62h32.102c5.8,0,11.148-2.896,14.308-7.748
	l31.837-48.811c2.742-4.211,6.176-7.867,10.174-10.857l45.633-34.238l41.541-49.093c2.324-2.742,6.099-3.742,9.456-2.503
	c3.374,1.239,5.604,4.442,5.604,8.021v247.189c0,4.715-3.818,8.534-8.534,8.542L8.542,507.989
	C8.551,507.989,8.542,507.989,8.542,507.989z M17.085,472.513v18.383l477.831-0.53V275.041l-27.105,32.034
	c-0.419,0.487-0.888,0.923-1.392,1.307l-46.427,34.827c-2.409,1.794-4.451,3.981-6.099,6.501l-31.837,48.811
	c-6.33,9.713-17.025,15.504-28.625,15.504h-32.093c-14.496,0.009-28.369,6.193-38.073,16.965l-10.439,11.6
	c-8.09,8.987-19.664,14.138-31.752,14.138c-0.009,0-0.026,0-0.034,0h-128.57c-0.461,0-0.923,0.034-1.375,0.111L17.085,472.513z"/>
<path style="fill:#FFFFFF;" d="M444.2,431.109v-17.085"/>
<rect x="435.657" y="414.041" width="17.085" height="17.085"/>
<path style="fill:#FFFFFF;" d="M469.827,405.482v-17.085"/>
<rect x="461.284" y="388.414" width="17.085" height="17.085"/>
<path style="fill:#FFFFFF;" d="M418.573,405.482v-17.085"/>
<rect x="410.031" y="388.414" width="17.085" height="17.085"/>
<path style="fill:#FFFFFF;" d="M324.608,431.109v17.085"/>
<rect x="316.065" y="431.126" width="17.085" height="17.085"/>
<path style="fill:#FFFFFF;" d="M298.981,456.736v17.085"/>
<rect x="290.438" y="456.753" width="17.085" height="17.085"/>
<path style="fill:#FFFFFF;" d="M350.234,456.736v17.085"/>
<rect x="341.692" y="456.753" width="17.085" height="17.085"/>
<path style="fill:#FFFFFF;" d="M119.592,465.278v17.085"/>
<rect x="111.05" y="465.295" width="17.085" height="17.085"/>
<path style="fill:#FFFFFF;" d="M196.473,465.278v17.085"/>
<rect x="187.931" y="465.295" width="17.085" height="17.085"/>
<path d="M240.551,311.516h-20.331c-4.715,0-8.542-3.818-8.542-8.542s3.827-8.542,8.542-8.542h20.331
	c4.715,0,8.542,3.818,8.542,8.542S245.267,311.516,240.551,311.516z"/>
<g>
</g>
<g>
</g>
<g>
</g>
<g>
</g>
<g>
</g>
<g>
</g>
<g>
</g>
<g>
</g>
<g>
</g>
<g>
</g>
<g>
</g>
<g>
</g>
<g>
</g>
<g>
</g>
<g>
</g>
</svg>
